# xmcd CD database file
#
# Track frame offsets:
#	150
#	14170
#	28465
#	41207
#	55275
#	70220
#	83560
#	97267
#	110412
#	123855
#	138505
#	150722
#	165385
#	179742
#	192657
#	205660
#	218595
#	231620
#	246477
#	261450
#	273472
#	287390
#	302212
#	317735
#	331940
#
# Disc length: 4616 seconds
#
# Revision: 0
# Processed by: cddbd v1.5PL3 Copyright (c) Steve Scherf et al.
# Submitted via: CDex 1.51
#
DISCID=89120619
DTITLE=Papa Charlie Jackson - Complete Recorded Works in Chronological Order - Volume 3 (Sep. 1928 - Nov. 1934)
DYEAR=1991
DGENRE=Blues
TTITLE0=Good Doing Papa Blues
TTITLE1=Ma and Pa Poorhouse Blues (duet w/Ma Rainey)
TTITLE2=Big Feeling Blues (duet w/Ma Rainey)
TTITLE3=Jungle Man Blues
TTITLE4=Corn Liquor Blues
TTITLE5=Don't Break Down on Me
TTITLE6=Baby Please Loan Me Your Heart
TTITLE7=Dentist Chair Blues - Part 1 (duet w/Hattie McDaniels)
TTITLE8=Dentist Chair Blues - Part 2 (duet w/Hattie McDaniels)
TTITLE9=Hot Papa Blues - No. 2
TTITLE10=We Can't Buy It No More
TTITLE11=Tailor Made Lover
TTITLE12=Take Me Back Blues No. 2
TTITLE13='Tain't What You Do But How You Do It
TTITLE14=Forgotten Blues
TTITLE15=Papa Do Do Do Blues
TTITLE16=I'll Be Gone Babe
TTITLE17=Papa Charlie and Blind Blake Talk About It - Part 1 (duet w/Blind Blake)
TTITLE18=Papa Charlie and Blind Blake Talk About It - Part 2 (duet w/Blind Blake)
TTITLE19=You Got That Wrong
TTITLE20=Self Experience
TTITLE21=Skoodle-Um-Skoo
TTITLE22=If I Got What You Want
TTITLE23=What's That Thing She's Shaking?
TTITLE24=You Put It In, I'll Take It Out
EXTD=YEAR: 1991
EXTT0=
EXTT1=
EXTT2=
EXTT3=
EXTT4=
EXTT5=
EXTT6=
EXTT7=
EXTT8=
EXTT9=
EXTT10=
EXTT11=
EXTT12=
EXTT13=
EXTT14=
EXTT15=
EXTT16=
EXTT17=
EXTT18=
EXTT19=
EXTT20=
EXTT21=
EXTT22=
EXTT23=
EXTT24=
PLAYORDER=
